<?xml version="1.0" encoding="utf-8"?>
<!-- Generator: Adobe Illustrator 16.0.0, SVG Export Plug-In . SVG Version: 6.00 Build 0)  -->
<!DOCTYPE svg PUBLIC "-//W3C//DTD SVG 1.1//EN" "http://www.w3.org/Graphics/SVG/1.1/DTD/svg11.dtd">
<svg version="1.1" id="Layer_1" xmlns="http://www.w3.org/2000/svg" xmlns:xlink="http://www.w3.org/1999/xlink" x="0px" y="0px"
	 width="68px" height="68px" viewBox="446 203.997 68 68" enable-background="new 446 203.997 68 68" xml:space="preserve">
<g>
	<polygon fill="#FF3333" points="474.115,250.611 480,256.496 485.885,250.611 484.829,249.555 480.747,253.637 480.747,219.496 
		479.254,219.496 479.254,253.637 475.171,249.555 	"/>
	<path fill="#FF3333" d="M480,204.247c-18.61,0-33.75,15.14-33.75,33.75c0,18.609,15.14,33.75,33.75,33.75
		c18.609,0,33.75-15.14,33.75-33.75C513.75,219.387,498.609,204.247,480,204.247z M480,270.246c-17.783,0-32.25-14.467-32.25-32.25
		c0-17.783,14.467-32.25,32.25-32.25c17.782,0,32.25,14.467,32.25,32.25C512.25,255.779,497.782,270.246,480,270.246z"/>
</g>
</svg>
