<?xml version="1.0" encoding="utf-8"?>
<!-- Generator: Adobe Illustrator 16.0.0, SVG Export Plug-In . SVG Version: 6.00 Build 0)  -->
<!DOCTYPE svg PUBLIC "-//W3C//DTD SVG 1.1//EN" "http://www.w3.org/Graphics/SVG/1.1/DTD/svg11.dtd">
<svg version="1.1" id="Layer_1" xmlns="http://www.w3.org/2000/svg" xmlns:xlink="http://www.w3.org/1999/xlink" x="0px" y="0px"
	 width="52px" height="52px" viewBox="611.455 211.997 52 52" enable-background="new 611.455 211.997 52 52" xml:space="preserve">
<g>
	<polygon fill="#FF3333" points="641.988,228.278 637.455,223.745 632.922,228.278 633.735,229.092 636.88,225.947 636.88,252.249 
		638.03,252.249 638.03,225.947 641.175,229.092 	"/>
	<path fill="#FF3333" d="M637.455,263.996c14.336,0,26-11.664,26-26c0-14.336-11.664-26-26-26s-26,11.664-26,26
		C611.455,252.333,623.119,263.996,637.455,263.996z M637.455,213.152c13.699,0,24.845,11.146,24.845,24.844
		c0,13.699-11.146,24.845-24.845,24.845s-24.845-11.146-24.845-24.845C612.61,224.297,623.756,213.152,637.455,213.152z"/>
</g>
</svg>
