<?xml version="1.0" encoding="utf-8"?>
<!-- Generator: Adobe Illustrator 16.0.0, SVG Export Plug-In . SVG Version: 6.00 Build 0)  -->
<!DOCTYPE svg PUBLIC "-//W3C//DTD SVG 1.1//EN" "http://www.w3.org/Graphics/SVG/1.1/DTD/svg11.dtd">
<svg version="1.1" id="Layer_1" xmlns="http://www.w3.org/2000/svg" xmlns:xlink="http://www.w3.org/1999/xlink" x="0px" y="0px"
	 width="131.593px" height="79px" viewBox="763.275 123.346 131.593 79" enable-background="new 763.275 123.346 131.593 79"
	 xml:space="preserve">
<g>
	<g>
		<path fill="#6D4A2D" d="M875.225,171.218c-4.09-0.22-4.976-6.197-5.076-7.006l-5.703-38.769c-0.147-1,0.545-1.931,1.545-2.079
			c0.999-0.146,1.931,0.545,2.077,1.545l5.707,38.791c0.002,0.015,0.004,0.031,0.006,0.046c0.229,1.826,1.074,3.784,1.648,3.815
			c0.001,0,0.003,0,0.004,0c1.588,0.062,2.598-2.839,2.781-3.619c0.231-0.981,1.214-1.594,2.196-1.366
			c0.982,0.229,1.597,1.205,1.372,2.188c-0.565,2.469-2.567,6.607-6.491,6.456C875.269,171.221,875.246,171.22,875.225,171.218z"/>
		<g>
			<path fill="#CF2528" d="M858.698,147.669c2.451-0.361,4.683,0.354,5.679,1.666c0.058-0.154,0.127-0.305,0.211-0.454
				c-1.371-12.274-0.637-21.855,1.887-22.226c-8.111,1.192-13.442,11.664-12.864,24.261c0.024,0.045,0.048,0.091,0.07,0.138
				C854.181,149.446,856.164,148.042,858.698,147.669z"/>
			<path fill="#CF2528" d="M866.475,126.654c2.523-0.372,5.984,8.593,8.206,20.742c0.019,0.018,0.036,0.036,0.055,0.055
				c0.616-1.505,2.521-2.789,4.925-3.143c2.547-0.375,4.861,0.409,5.795,1.817c0.047-0.159,0.112-0.315,0.189-0.471
				C882.471,133.71,874.468,125.478,866.475,126.654z"/>
			<path fill="#EB8023" d="M848.398,148.906c2.299-0.338,4.471,0.668,5.282,2.147c-0.576-12.597,4.683-23.207,12.794-24.399
				c7.993-1.176,15.806,7.526,18.98,19.471c0.696-1.415,2.729-3.072,5.022-3.409c1.595-0.235,3.098-0.013,4.228,0.53
				c-4.104-11.238-15.777-18.43-28.231-16.598c-12.822,1.886-22.097,12.694-22.295,25.087
				C844.78,150.345,846.383,149.203,848.398,148.906z"/>
			<path fill="#EB8023" d="M864.377,149.334c0.755-1.343,2.751-2.905,4.959-3.23c2.206-0.324,4.289,0.279,5.399,1.347
				c-2.223-12.149-5.737-21.168-8.261-20.796C863.951,127.025,863.008,137.06,864.377,149.334z"/>
		</g>
	</g>
	<g>
		<path fill="#50B748" d="M770.294,155.243c0,0.018-0.005,0.08-0.014,0.188c-0.009,0.107-0.058,0.223-0.146,0.349
			c-0.088,0.125-0.232,0.236-0.431,0.335c-0.2,0.098-0.488,0.147-0.869,0.147c-0.513,0-0.912-0.028-1.2-0.085
			c-0.287-0.057-0.499-0.135-0.636-0.235c-0.138-0.1-0.221-0.214-0.253-0.341c-0.03-0.126-0.046-0.255-0.046-0.386
			c0-1.336,0.335-2.482,1.003-3.437c0.669-0.955,1.607-1.738,2.815-2.348c1.207-0.61,2.656-1.058,4.345-1.345
			c1.689-0.287,3.555-0.431,5.596-0.431c1.355,0,2.78,0.065,4.277,0.197c1.497,0.131,3.042,0.267,4.638,0.406
			c0.455,0.126,0.771,0.304,0.945,0.537c0.174,0.233,0.262,0.478,0.262,0.738c0,0.169-0.025,0.348-0.075,0.536
			c-0.048,0.188-0.123,0.362-0.221,0.523c-0.099,0.161-0.23,0.293-0.395,0.396c-0.166,0.103-0.352,0.154-0.556,0.154
			c-0.021,0-0.052-0.001-0.092-0.004s-0.083-0.006-0.128-0.01c-0.593-0.046-1.232-0.095-1.92-0.149
			c-0.687-0.053-1.402-0.108-2.147-0.167c-0.746-0.057-1.518-0.097-2.314-0.12c-0.798-0.022-1.607-0.033-2.428-0.033
			c-0.243,0-0.534,0.011-0.872,0.033c-0.338,0.022-0.665,0.047-0.979,0.077c-0.361,0.029-0.735,0.066-1.123,0.109
			c0,0.08-0.01,0.172-0.026,0.273c-0.019,0.103-0.043,0.265-0.073,0.488c-0.031,0.223-0.08,0.519-0.15,0.886
			c-0.07,0.368-0.131,0.812-0.183,1.333c-0.053,0.521-0.133,1.175-0.24,1.962c-0.108,0.788-0.205,1.776-0.295,2.964h7.413
			c0.216,0,0.38,0.04,0.496,0.12c0.116,0.08,0.201,0.181,0.255,0.303c0.055,0.122,0.085,0.252,0.094,0.391
			c0.01,0.139,0.014,0.271,0.014,0.398c0,0.404-0.094,0.707-0.282,0.908c-0.187,0.202-0.38,0.303-0.576,0.303
			c-0.062,0-0.268,0.006-0.615,0.019c-0.349,0.012-0.774,0.027-1.274,0.044c-0.501,0.016-1.051,0.036-1.649,0.056
			c-0.599,0.021-1.178,0.041-1.736,0.059c-0.56,0.018-1.062,0.033-1.51,0.046c-0.447,0.014-0.768,0.021-0.958,0.021
			c-0.202,1.074-0.396,2.114-0.584,3.118c-0.188,1.004-0.436,1.942-0.745,2.813c-0.308,0.872-0.672,1.666-1.093,2.381
			c-0.42,0.715-0.921,1.328-1.501,1.837c-0.581,0.509-1.253,0.905-2.013,1.187c-0.759,0.281-1.631,0.422-2.615,0.422
			c-0.204,0-0.448-0.014-0.733-0.04c-0.287-0.027-0.586-0.072-0.899-0.134c-0.312-0.062-0.623-0.146-0.932-0.248
			s-0.583-0.23-0.825-0.382c-0.241-0.152-0.438-0.329-0.59-0.53c-0.152-0.201-0.228-0.431-0.228-0.69
			c0-0.134,0.029-0.31,0.087-0.529c0.059-0.219,0.147-0.431,0.269-0.637c0.12-0.206,0.272-0.384,0.456-0.537
			s0.404-0.228,0.664-0.228c0.294,0,0.604,0.049,0.932,0.147c0.326,0.099,0.663,0.208,1.012,0.329
			c0.349,0.121,0.704,0.23,1.067,0.328c0.362,0.099,0.729,0.147,1.101,0.147c0.298,0,0.587-0.118,0.867-0.355
			s0.544-0.563,0.793-0.979c0.248-0.415,0.485-0.902,0.712-1.461c0.226-0.558,0.438-1.161,0.637-1.809
			c0.199-0.647,0.379-1.325,0.54-2.031c0.16-0.706,0.321-1.412,0.482-2.118l-1.667-0.002c-0.154,0-0.344-0.017-0.57-0.051
			c-0.226-0.034-0.442-0.091-0.651-0.171c-0.207-0.081-0.384-0.188-0.527-0.324c-0.146-0.135-0.218-0.304-0.218-0.507
			c0-0.144,0.04-0.278,0.121-0.404c0.08-0.126,0.216-0.219,0.405-0.278c0.503-0.101,0.944-0.189,1.322-0.265
			c0.378-0.076,0.713-0.14,1.005-0.195c0.292-0.055,0.551-0.104,0.776-0.146c0.225-0.042,0.431-0.076,0.62-0.101
			c0.216-1.054,0.387-1.938,0.514-2.649c0.126-0.712,0.234-1.354,0.323-1.925c0.09-0.571,0.176-1.108,0.257-1.614
			c0.08-0.504,0.174-1.047,0.28-1.627c-0.785,0.223-1.467,0.492-2.044,0.804c-0.579,0.313-1.057,0.648-1.437,1.006
			c-0.379,0.357-0.658,0.728-0.839,1.113C770.384,154.501,770.294,154.876,770.294,155.243z"/>
		<path fill="#50B748" d="M792.136,158.997c0,0.242-0.009,0.571-0.024,0.987c-0.016,0.416-0.07,0.869-0.161,1.361
			c-0.092,0.492-0.202,1.086-0.332,1.785s-0.236,1.275-0.322,1.732c-0.085,0.457-0.159,0.856-0.224,1.199
			c-0.062,0.343-0.095,0.591-0.095,0.747c0,0.251,0.004,0.483,0.012,0.693c0.008,0.211,0.03,0.395,0.068,0.552
			c0.04,0.157,0.1,0.278,0.181,0.363s0.198,0.128,0.354,0.128c0.196,0,0.436-0.049,0.716-0.148c0.282-0.098,0.582-0.23,0.899-0.397
			c0.316-0.166,0.641-0.354,0.972-0.565s0.646-0.433,0.945-0.666c0.3-0.233,0.572-0.465,0.818-0.693
			c0.246-0.229,0.444-0.442,0.597-0.64c0,0.296,0.002,0.566,0.007,0.808c0.004,0.243,0.007,0.474,0.007,0.693
			s0.002,0.447,0.007,0.68c0.004,0.233,0.007,0.494,0.007,0.78c-0.198,0.194-0.441,0.402-0.731,0.623
			c-0.291,0.22-0.612,0.441-0.966,0.661c-0.353,0.221-0.729,0.432-1.127,0.635c-0.396,0.203-0.797,0.381-1.2,0.536
			c-0.401,0.155-0.795,0.278-1.179,0.371c-0.383,0.093-0.738,0.139-1.066,0.139c-0.334,0-0.621-0.066-0.857-0.198
			c-0.237-0.132-0.441-0.317-0.612-0.556c-0.172-0.238-0.317-0.521-0.436-0.853c-0.119-0.33-0.222-0.698-0.31-1.104
			c-0.322,0.415-0.662,0.796-1.021,1.145c-0.357,0.349-0.722,0.651-1.094,0.906c-0.372,0.256-0.747,0.457-1.129,0.602
			c-0.38,0.146-0.749,0.218-1.106,0.218c-0.294,0-0.569-0.049-0.827-0.147c-0.259-0.098-0.488-0.263-0.688-0.496
			s-0.358-0.539-0.474-0.918c-0.116-0.379-0.174-0.851-0.174-1.414c0.009-1.17,0.099-2.068,0.269-2.694
			c0.268-0.912,0.517-2.272,0.749-4.079c0.023-0.132,0.058-0.312,0.1-0.541c0.041-0.229,0.104-0.478,0.19-0.746
			c0.084-0.269,0.189-0.541,0.314-0.818s0.272-0.527,0.442-0.751c0.17-0.223,0.368-0.407,0.597-0.549
			c0.228-0.143,0.484-0.219,0.771-0.228c0.474,0.023,0.813,0.1,1.019,0.23s0.309,0.292,0.309,0.486
			c-0.081,0.603-0.171,1.183-0.271,1.738c-0.101,0.556-0.201,1.117-0.303,1.681c-0.102,0.565-0.214,1.192-0.338,1.883
			s-0.224,1.245-0.299,1.662c-0.074,0.417-0.136,0.754-0.182,1.011c-0.047,0.257-0.069,0.391-0.069,0.4
			c0,0.166,0.016,0.326,0.048,0.477c0.031,0.152,0.078,0.289,0.141,0.409c0.063,0.119,0.144,0.216,0.243,0.29
			c0.098,0.074,0.214,0.111,0.35,0.111c0.197,0,0.399-0.052,0.605-0.157c0.205-0.105,0.398-0.257,0.578-0.458
			c0.188-0.182,0.354-0.418,0.498-0.709c0.144-0.282,0.251-0.61,0.322-0.983l1.479-7.307c0.043-0.215,0.218-0.396,0.525-0.543
			c0.306-0.147,0.652-0.221,1.042-0.221c0.439,0,0.789,0.081,1.048,0.242C792.007,158.541,792.136,158.747,792.136,158.997z"/>
		<path fill="#50B748" d="M795.072,168.691c0-0.59,0.035-1.271,0.107-2.044c0.071-0.773,0.16-1.623,0.269-2.548
			c0.107-0.925,0.228-1.758,0.362-2.5c0.133-0.742,0.263-1.376,0.388-1.904c0.098-0.411,0.289-0.755,0.569-1.032
			c0.282-0.277,0.665-0.416,1.147-0.416s0.817,0.147,1.005,0.442c0.188,0.295,0.282,0.688,0.282,1.18
			c0,0.134-0.014,0.315-0.041,0.543c-0.026,0.228-0.06,0.479-0.101,0.751c-0.04,0.273-0.082,0.554-0.127,0.845
			s-0.087,0.622-0.128,0.992c-0.039,0.371-0.073,0.648-0.1,0.831c-0.027,0.184-0.041,0.307-0.041,0.369h0.269
			c0.054-0.098,0.139-0.257,0.255-0.476c0.116-0.219,0.25-0.534,0.402-0.945c0.151-0.411,0.315-0.775,0.488-1.092
			c0.176-0.318,0.338-0.622,0.49-0.912s0.291-0.548,0.416-0.771c0.125-0.224,0.219-0.389,0.281-0.497
			c0.286-0.482,0.612-0.812,0.979-0.992c0.367-0.179,0.772-0.268,1.221-0.268c0.446,0,0.802,0.188,1.066,0.563
			c0.263,0.375,0.396,0.894,0.396,1.555c0,0.099-0.021,0.264-0.061,0.497c-0.041,0.232-0.092,0.509-0.155,0.831
			c-0.062,0.322-0.132,0.737-0.207,1.247c-0.076,0.51-0.146,0.966-0.208,1.368c-0.062,0.403-0.113,0.8-0.154,1.193
			c-0.041,0.394-0.06,0.756-0.06,1.086c0,0.554,0.068,1.01,0.207,1.368s0.355,0.537,0.65,0.537c0.106,0,0.259-0.041,0.457-0.121
			c0.294-0.107,0.481-0.201,0.562-0.282c0.393-0.304,0.599-0.451,0.617-0.442c0.025,0.009,0.326-0.169,0.897-0.536
			c0.715-0.456,1.569-1.014,2.561-1.676l-0.014,3.004l-0.67,0.509c-0.053,0.045-0.474,0.277-1.26,0.697
			c-1.136,0.608-1.847,0.974-2.132,1.1c-0.697,0.313-1.132,0.491-1.301,0.536c-0.447,0.143-0.917,0.214-1.407,0.214
			c-0.492,0-0.906-0.355-1.241-1.066c-0.335-0.71-0.503-1.75-0.503-3.117c0-0.536,0.036-1.115,0.107-1.736s0.161-1.29,0.268-2.004
			h-0.214l-3.513,6.972c-0.188,0.375-0.389,0.625-0.604,0.75c-0.224,0.134-0.482,0.201-0.778,0.201
			c-0.366,0-0.661-0.078-0.884-0.234c-0.224-0.156-0.396-0.367-0.517-0.63c-0.121-0.264-0.201-0.563-0.242-0.898
			C795.093,169.395,795.072,169.048,795.072,168.691z"/>
		<path fill="#50B748" d="M823.272,168.703c-0.635,0.522-1.261,0.988-1.878,1.396c-0.259,0.171-0.531,0.339-0.818,0.506
			c-0.285,0.167-0.567,0.313-0.845,0.441c-0.276,0.128-0.546,0.232-0.808,0.313c-0.262,0.081-0.501,0.121-0.717,0.121
			c-0.129,0-0.318-0.029-0.57-0.085c-0.253-0.058-0.526-0.174-0.824-0.349s-0.595-0.429-0.893-0.761
			c-0.298-0.333-0.556-0.774-0.774-1.324c-0.332,0.341-0.684,0.666-1.056,0.975c-0.373,0.309-0.759,0.577-1.158,0.804
			c-0.397,0.228-0.802,0.411-1.209,0.548c-0.408,0.137-0.818,0.206-1.23,0.206c-0.582,0-1.085-0.121-1.509-0.362
			c-0.425-0.242-0.777-0.563-1.06-0.965c-0.281-0.401-0.492-0.856-0.63-1.366c-0.14-0.51-0.208-1.036-0.208-1.581
			c0-0.58,0.074-1.168,0.221-1.762c0.147-0.595,0.362-1.17,0.645-1.729c0.281-0.558,0.594-1.141,0.938-1.749
			c0.344-0.608,0.8-1.162,1.367-1.661c0.568-0.499,1.151-0.875,1.75-1.129c0.598-0.254,1.237-0.413,1.918-0.477
			c0.025-1.162,0.148-2.185,0.369-3.069c0.22-0.885,0.456-1.837,0.709-2.856c0.254-1.02,0.58-1.958,0.98-2.816
			c0.4-0.858,0.838-1.6,1.315-2.226c0.476-0.625,0.983-1.115,1.523-1.468c0.539-0.353,1.097-0.53,1.672-0.53
			c0.42,0,0.777,0.109,1.073,0.329c0.294,0.22,0.533,0.511,0.717,0.873c0.183,0.363,0.314,0.784,0.396,1.263
			c0.08,0.479,0.12,0.974,0.12,1.484c0,0.318-0.003,0.646-0.009,0.983c-0.026,1.283-0.224,2.478-0.595,3.583
			c-0.37,1.105-0.736,2.199-1.098,3.279s-0.798,2.149-1.311,3.206c-0.78,1.618-1.278,2.716-1.491,3.295
			c-0.046,0.126-0.093,0.28-0.14,0.461c-0.046,0.181-0.091,0.377-0.132,0.59c-0.042,0.212-0.077,0.429-0.105,0.651
			c-0.028,0.221-0.041,0.436-0.041,0.644c0,0.262,0.016,0.511,0.046,0.746c0.029,0.235,0.08,0.445,0.15,0.63
			c0.068,0.186,0.162,0.333,0.28,0.441c0.117,0.108,0.263,0.163,0.437,0.163c0.171,0,0.355-0.034,0.558-0.102
			c0.2-0.067,0.413-0.159,0.636-0.277c0.224-0.117,0.45-0.25,0.678-0.398c0.229-0.149,0.449-0.3,0.664-0.454
			c0.491-0.36,1.005-0.771,1.542-1.23L823.272,168.703z M813.978,160.785c-0.59,0.289-1.115,0.669-1.575,1.143
			c-0.461,0.473-0.844,1.097-1.153,1.872c-0.308,0.775-0.543,1.442-0.704,2.001c-0.161,0.559-0.241,1.063-0.241,1.514
			c0,0.14,0.021,0.28,0.061,0.42c0.04,0.14,0.114,0.266,0.222,0.378c0.107,0.111,0.26,0.202,0.456,0.272
			c0.195,0.07,0.451,0.105,0.764,0.105c0.161,0,0.32-0.036,0.477-0.107s0.306-0.165,0.449-0.279
			c0.143-0.115,0.279-0.246,0.409-0.393c0.13-0.146,0.248-0.299,0.356-0.458c0.251-0.364,0.479-0.776,0.684-1.236
			c-0.027-0.126-0.05-0.327-0.067-0.602c-0.019-0.274-0.032-0.694-0.041-1.258c-0.009-0.563-0.018-1.025-0.027-1.385
			c-0.009-0.361-0.016-0.689-0.02-0.987c-0.005-0.298-0.012-0.541-0.021-0.73C813.996,160.866,813.986,160.775,813.978,160.785z
			 M820.304,151.637c0.055-0.626,0.083-1.123,0.083-1.489c0-0.483-0.043-0.818-0.13-1.006c-0.085-0.188-0.211-0.282-0.374-0.282
			c-0.291,0-0.555,0.181-0.791,0.543c-0.236,0.362-0.426,0.829-0.57,1.4c-0.144,0.571-0.299,1.192-0.469,1.863
			c-0.169,0.672-0.292,1.329-0.369,1.972c-0.078,0.644-0.141,1.223-0.188,1.739c-0.047,0.517-0.08,0.883-0.1,1.101
			c-0.038,0.444-0.071,0.872-0.095,1.284c-0.024,0.412-0.042,0.788-0.051,1.127c-0.01,0.34-0.015,0.637-0.015,0.89
			c0,0.254,0,0.449,0,0.584v0.137c0.496-1.191,0.954-2.377,1.374-3.559c0.174-0.504,0.347-1.03,0.517-1.577
			c0.172-0.546,0.34-1.089,0.508-1.627c0.167-0.538,0.309-1.071,0.425-1.599C820.176,152.612,820.257,152.111,820.304,151.637z"/>
		<path fill="#50B748" d="M836.597,168.17c-0.206,0.29-0.48,0.629-0.825,1.017c-0.344,0.389-0.73,0.759-1.159,1.112
			c-0.43,0.353-0.89,0.651-1.382,0.895c-0.492,0.244-0.982,0.366-1.475,0.366c-0.593,0-1.09-0.188-1.485-0.564
			c-0.397-0.376-0.739-0.923-1.027-1.64c-0.217,0.248-0.481,0.5-0.798,0.757c-0.314,0.257-0.66,0.489-1.033,0.697
			c-0.374,0.208-0.764,0.377-1.17,0.51s-0.811,0.199-1.216,0.199c-0.43,0-0.847-0.087-1.254-0.264
			c-0.406-0.176-0.767-0.429-1.08-0.757c-0.312-0.33-0.562-0.73-0.75-1.204c-0.188-0.473-0.282-1.008-0.282-1.603
			c0-0.667,0.095-1.354,0.283-2.058c0.189-0.703,0.482-1.465,0.878-2.285c0.395-0.819,0.82-1.527,1.274-2.125
			c0.454-0.597,0.95-1.117,1.49-1.563c0.539-0.445,1.107-0.8,1.706-1.062c0.599-0.262,1.208-0.394,1.828-0.394
			c0.206,0,0.369,0.041,0.485,0.122c0.117,0.082,0.213,0.174,0.289,0.278c0.077,0.104,0.151,0.205,0.224,0.305
			c0.071,0.099,0.161,0.171,0.27,0.216c0.107,0.045,0.218,0.075,0.331,0.088c0.111,0.014,0.227,0.021,0.344,0.021
			c0.098,0,0.199-0.002,0.304-0.007c0.103-0.004,0.204-0.007,0.303-0.007c0.135,0,0.261,0.014,0.378,0.041
			c0.116,0.027,0.221,0.086,0.31,0.176c0.09,0.091,0.159,0.217,0.208,0.379s0.074,0.384,0.074,0.664
			c0,0.427-0.046,0.901-0.135,1.422c-0.089,0.521-0.191,1.055-0.307,1.601c-0.115,0.546-0.247,1.169-0.395,1.87
			c-0.147,0.699-0.222,1.289-0.222,1.768c0,0.41,0.039,0.73,0.114,0.96c0.076,0.231,0.239,0.346,0.489,0.346
			c0.188,0,0.385-0.046,0.59-0.139c0.206-0.093,0.414-0.215,0.624-0.365c0.21-0.151,0.42-0.321,0.631-0.512
			c0.21-0.19,0.408-0.388,0.596-0.592c0.438-0.479,0.881-1.019,1.327-1.622L836.597,168.17z M825.093,167.121
			c0,0.23,0.016,0.454,0.048,0.67c0.031,0.217,0.087,0.41,0.168,0.581c0.08,0.171,0.188,0.309,0.321,0.415
			c0.136,0.106,0.305,0.159,0.511,0.159c0.332,0,0.631-0.144,0.9-0.432c0.269-0.288,0.501-0.634,0.698-1.04
			c0.196-0.405,0.355-0.823,0.477-1.255c0.121-0.432,0.199-0.792,0.235-1.08l0.999-4.359c-0.366,0-0.724,0.091-1.072,0.272
			s-0.677,0.427-0.985,0.737c-0.309,0.311-0.592,0.665-0.852,1.063c-0.259,0.398-0.514,0.891-0.765,1.475
			c-0.249,0.585-0.426,1.1-0.529,1.542C825.145,166.314,825.093,166.73,825.093,167.121z"/>
		<path fill="#50B748" d="M839.7,171.493c-0.827,0-1.554-0.151-2.179-0.456c-0.626-0.304-1.149-0.71-1.572-1.221
			c-0.423-0.509-0.742-1.099-0.959-1.77c-0.216-0.671-0.324-1.368-0.324-2.092c0-0.518,0.091-1.14,0.27-1.864
			c0.181-0.724,0.376-1.356,0.587-1.897c0.211-0.541,0.472-1.057,0.782-1.549c0.31-0.491,0.669-0.923,1.078-1.294
			c0.409-0.371,0.865-0.666,1.368-0.885c0.503-0.219,1.056-0.329,1.658-0.329c0.541,0,1.043,0.079,1.505,0.235
			c0.461,0.156,0.855,0.374,1.185,0.65c0.328,0.277,0.584,0.605,0.77,0.985c0.186,0.38,0.278,0.789,0.278,1.227
			c0,0.304-0.043,0.604-0.131,0.898c-0.087,0.295-0.257,0.642-0.508,1.039c-0.252,0.398-0.495,0.669-0.732,0.812
			c-0.236,0.143-0.505,0.214-0.806,0.214c-0.452,0-0.744-0.112-0.876-0.335c-0.217-0.349-0.284-0.657-0.204-0.926
			c0.025-0.143,0.105-0.474,0.24-0.992c0.018-0.071,0.021-0.232,0.014-0.482c0-0.214-0.022-0.393-0.068-0.537
			c-0.044-0.143-0.142-0.214-0.293-0.214c-0.364,0-0.677,0.087-0.934,0.262c-0.259,0.174-0.479,0.402-0.661,0.684
			c-0.183,0.282-0.363,0.68-0.542,1.193c-0.177,0.515-0.304,0.945-0.38,1.294c-0.075,0.349-0.122,0.682-0.14,0.999
			s-0.027,0.583-0.027,0.798c0,0.321,0.029,0.657,0.087,1.006c0.058,0.348,0.174,0.668,0.348,0.958s0.398,0.532,0.675,0.724
			c0.275,0.192,0.632,0.288,1.066,0.288c0.43,0,0.904-0.131,1.422-0.395c0.519-0.264,1.04-0.597,1.562-0.999
			c0.523-0.402,1.021-0.845,1.495-1.328c0.474-0.482,0.88-0.938,1.22-1.367l0.925,1.555c-0.67,0.957-1.395,1.81-2.172,2.561
			c-0.33,0.322-0.689,0.635-1.079,0.938c-0.389,0.304-0.796,0.575-1.221,0.811c-0.424,0.237-0.867,0.429-1.327,0.577
			C840.64,171.419,840.173,171.493,839.7,171.493z"/>
		<path fill="#50B748" d="M843.918,171.493c0-0.142,0.032-0.391,0.095-0.75c0.063-0.358,0.149-0.792,0.254-1.3
			c0.106-0.509,0.21-1.077,0.314-1.702c0.104-0.627,0.211-1.268,0.321-1.925c0.109-0.657,0.228-1.362,0.354-2.117
			c0.128-0.754,0.26-1.416,0.396-1.986c0.135-0.57,0.273-1.075,0.414-1.515s0.278-0.781,0.415-1.024
			c0.119-0.206,0.259-0.368,0.421-0.485c0.162-0.117,0.338-0.202,0.529-0.255c0.191-0.054,0.392-0.088,0.601-0.101
			c0.208-0.014,0.414-0.021,0.618-0.021c0.313,0,0.538,0.094,0.677,0.282c0.139,0.188,0.209,0.384,0.209,0.59
			c0,0.107-0.025,0.277-0.075,0.51c-0.048,0.232-0.109,0.482-0.18,0.751c-0.072,0.268-0.144,0.522-0.215,0.764
			c-0.062,0.224-0.116,0.402-0.161,0.536l-0.751,2.454c0.501-0.08,0.983-0.136,1.448-0.167c0.465-0.031,0.975-0.089,1.528-0.174
			c0.555-0.084,1.18-0.228,1.877-0.429c0.697-0.201,1.528-0.516,2.494-0.945v2.575c-0.59,0.322-1.183,0.57-1.776,0.745
			c-0.595,0.174-1.133,0.302-1.615,0.382c-0.563,0.099-1.113,0.152-1.649,0.161c0.221,0.582,0.417,1.185,0.585,1.811
			c0.119,0.552,0.247,1.153,0.386,1.801c0.139,0.649,0.209,1.304,0.209,1.965c0,0.116-0.011,0.387-0.034,0.811
			c-0.022,0.424-0.075,0.923-0.16,1.495s-0.22,1.178-0.402,1.817s-0.435,1.225-0.751,1.756c-0.317,0.532-0.716,0.972-1.193,1.321
			c-0.479,0.349-1.062,0.523-1.75,0.523c-0.626,0-1.157-0.184-1.595-0.549c-0.438-0.367-0.794-0.898-1.066-1.596
			c-0.272-0.697-0.469-1.55-0.59-2.561C843.979,173.929,843.918,172.78,843.918,171.493z M846.896,154.566
			c0-0.208,0.045-0.442,0.134-0.704s0.234-0.508,0.436-0.738c0.202-0.23,0.469-0.424,0.804-0.582
			c0.337-0.158,0.754-0.237,1.255-0.237c0.312,0,0.607,0.036,0.884,0.108c0.278,0.072,0.52,0.183,0.725,0.332
			c0.206,0.149,0.369,0.345,0.489,0.589c0.121,0.244,0.182,0.532,0.182,0.866c0,0.307-0.05,0.604-0.147,0.893
			c-0.1,0.289-0.255,0.546-0.47,0.771c-0.214,0.226-0.484,0.409-0.811,0.548c-0.327,0.141-0.718,0.21-1.173,0.21
			c-0.788,0-1.368-0.188-1.744-0.562S846.896,155.189,846.896,154.566z M847.744,165.498c-0.182,1.392-0.364,2.793-0.547,4.202
			c-0.184,1.41-0.275,2.866-0.275,4.367c0,0.492,0.032,0.901,0.094,1.228c0.062,0.326,0.142,0.59,0.234,0.791
			c0.094,0.201,0.188,0.344,0.282,0.429c0.094,0.085,0.176,0.127,0.248,0.127c0.295,0,0.529-0.161,0.704-0.483
			c0.174-0.322,0.304-0.72,0.388-1.194c0.086-0.475,0.139-0.987,0.162-1.538c0.022-0.55,0.033-1.054,0.033-1.51
			c0-0.26-0.016-0.553-0.045-0.879c-0.03-0.327-0.081-0.663-0.151-1.009c-0.069-0.347-0.141-0.697-0.213-1.051
			c-0.072-0.355-0.144-0.708-0.215-1.059C848.234,167.135,848.001,166.328,847.744,165.498z"/>
		<path fill="#50B748" d="M868.373,168.17c-0.205,0.29-0.48,0.629-0.824,1.017c-0.344,0.389-0.729,0.759-1.159,1.112
			c-0.429,0.353-0.89,0.651-1.381,0.895c-0.492,0.244-0.984,0.366-1.476,0.366c-0.594,0-1.089-0.188-1.484-0.564
			c-0.397-0.376-0.74-0.923-1.027-1.64c-0.217,0.248-0.483,0.5-0.798,0.757c-0.316,0.257-0.66,0.489-1.034,0.697
			s-0.764,0.377-1.169,0.51c-0.406,0.133-0.811,0.199-1.217,0.199c-0.429,0-0.848-0.087-1.254-0.264
			c-0.407-0.176-0.767-0.429-1.079-0.757c-0.313-0.33-0.562-0.73-0.751-1.204c-0.188-0.473-0.281-1.008-0.281-1.603
			c0-0.667,0.094-1.354,0.283-2.058c0.188-0.703,0.48-1.465,0.877-2.285c0.396-0.819,0.819-1.527,1.274-2.125
			c0.454-0.597,0.95-1.117,1.49-1.563c0.54-0.445,1.108-0.8,1.706-1.062c0.598-0.262,1.207-0.394,1.827-0.394
			c0.208,0,0.369,0.041,0.486,0.122c0.116,0.082,0.214,0.174,0.29,0.278c0.077,0.104,0.15,0.205,0.223,0.305
			c0.072,0.099,0.162,0.171,0.27,0.216c0.108,0.045,0.219,0.075,0.33,0.088c0.113,0.014,0.229,0.021,0.344,0.021
			c0.1,0,0.2-0.002,0.304-0.007c0.104-0.004,0.205-0.007,0.304-0.007c0.136,0,0.261,0.014,0.378,0.041
			c0.117,0.027,0.22,0.086,0.311,0.176c0.089,0.091,0.158,0.217,0.207,0.379c0.05,0.163,0.074,0.384,0.074,0.664
			c0,0.427-0.045,0.901-0.134,1.422c-0.089,0.521-0.192,1.055-0.307,1.601c-0.116,0.546-0.247,1.169-0.396,1.87
			c-0.147,0.699-0.221,1.289-0.221,1.768c0,0.41,0.037,0.73,0.114,0.96c0.075,0.231,0.239,0.346,0.489,0.346
			c0.188,0,0.384-0.046,0.59-0.139c0.205-0.093,0.413-0.215,0.623-0.365c0.211-0.151,0.421-0.321,0.63-0.512
			c0.21-0.19,0.41-0.388,0.597-0.592c0.438-0.479,0.882-1.019,1.328-1.622L868.373,168.17z M856.871,167.121
			c0,0.23,0.015,0.454,0.046,0.67c0.032,0.217,0.088,0.41,0.168,0.581c0.082,0.171,0.188,0.309,0.323,0.415
			c0.134,0.106,0.305,0.159,0.511,0.159c0.331,0,0.631-0.144,0.899-0.432c0.269-0.288,0.502-0.634,0.698-1.04
			c0.197-0.405,0.356-0.823,0.477-1.255c0.121-0.432,0.2-0.792,0.235-1.08l1-4.359c-0.366,0-0.724,0.091-1.072,0.272
			s-0.677,0.427-0.986,0.737c-0.308,0.311-0.592,0.665-0.851,1.063c-0.26,0.398-0.515,0.891-0.765,1.475
			c-0.25,0.585-0.428,1.1-0.53,1.542C856.922,166.314,856.871,166.73,856.871,167.121z"/>
		<path fill="#50B748" d="M792.708,174.51c1.512,0,2.836,0.203,3.974,0.608c1.139,0.406,2.086,0.946,2.842,1.619
			s1.324,1.446,1.707,2.32c0.382,0.874,0.574,1.778,0.574,2.714c0,0.876-0.172,1.745-0.514,2.604s-0.857,1.651-1.545,2.375
			c-0.688,0.725-1.557,1.351-2.604,1.879c-1.049,0.528-2.278,0.899-3.691,1.114c-0.027,0.653-0.049,1.253-0.066,1.799
			c-0.009,0.233-0.018,0.465-0.027,0.697c-0.009,0.233-0.016,0.446-0.021,0.638c-0.004,0.192-0.009,0.36-0.013,0.503
			c-0.005,0.144-0.007,0.242-0.007,0.296c-0.019,0.626-0.092,1.276-0.223,1.95c-0.13,0.673-0.318,1.33-0.565,1.972
			c-0.247,0.642-0.548,1.25-0.902,1.826c-0.354,0.575-0.767,1.078-1.238,1.511s-0.998,0.776-1.581,1.03
			c-0.585,0.253-1.222,0.381-1.912,0.381c-0.733,0-1.389-0.19-1.965-0.569c-0.577-0.38-1.082-0.891-1.516-1.534
			s-0.799-1.384-1.099-2.223c-0.3-0.84-0.543-1.717-0.731-2.632c-0.188-0.915-0.323-1.837-0.408-2.765
			c-0.086-0.929-0.128-1.804-0.128-2.625c0-1.411,0.13-2.773,0.39-4.086c0.261-1.313,0.632-2.543,1.115-3.69
			c0.482-1.148,1.069-2.195,1.76-3.142c0.689-0.946,1.466-1.76,2.33-2.438c0.864-0.679,1.805-1.204,2.821-1.574
			S791.562,174.51,792.708,174.51z M784.642,189.652c0,0.367,0.001,0.861,0.007,1.483c0.005,0.622,0.028,1.286,0.073,1.993
			c0.045,0.707,0.116,1.422,0.215,2.147c0.098,0.726,0.243,1.38,0.435,1.967c0.193,0.586,0.435,1.065,0.725,1.436
			c0.291,0.371,0.655,0.557,1.093,0.557c0.456,0,0.845-0.159,1.167-0.477s0.59-0.73,0.804-1.235c0.216-0.506,0.385-1.079,0.51-1.719
			c0.126-0.64,0.219-1.282,0.282-1.927c0.062-0.645,0.103-1.26,0.121-1.846c0.018-0.586,0.026-1.085,0.026-1.497v-0.631
			c-0.736-0.29-1.314-0.545-1.735-0.765s-0.738-0.431-0.951-0.632c-0.212-0.202-0.348-0.415-0.405-0.639s-0.087-0.486-0.087-0.784
			c0-0.166,0.005-0.329,0.014-0.489s0.034-0.303,0.073-0.427c0.04-0.124,0.098-0.225,0.173-0.303s0.18-0.117,0.312-0.117
			c0.089,0,0.17,0.019,0.246,0.056c0.075,0.037,0.17,0.088,0.285,0.153c0.293,0.167,0.559,0.304,0.798,0.411
			c0.24,0.107,0.443,0.193,0.612,0.258c0.194,0.074,0.371,0.13,0.531,0.167c0-0.118,0.002-0.35,0.007-0.698
			c0.004-0.348,0.031-0.746,0.081-1.193c0.049-0.447,0.132-0.915,0.249-1.403s0.289-0.935,0.514-1.342
			c0.226-0.407,0.519-0.743,0.879-1.01s0.807-0.4,1.339-0.4c0.16,0,0.326,0.016,0.495,0.047c0.17,0.031,0.323,0.089,0.462,0.175
			s0.255,0.2,0.349,0.344c0.094,0.144,0.142,0.328,0.142,0.552c0,0.064-0.003,0.106-0.007,0.129
			c-0.005,0.022-0.007,0.052-0.007,0.088l-0.815,3.489l-0.121,1.073c0.874-0.136,1.627-0.353,2.261-0.652
			c0.633-0.298,1.156-0.652,1.571-1.059c0.414-0.408,0.722-0.856,0.923-1.345c0.2-0.489,0.301-0.992,0.301-1.508
			c0-0.502-0.096-1.017-0.289-1.542c-0.191-0.525-0.524-1.004-0.997-1.435c-0.474-0.432-1.107-0.786-1.902-1.065
			c-0.794-0.279-1.795-0.418-3.001-0.418c-0.904,0-1.725,0.172-2.459,0.518c-0.735,0.345-1.39,0.813-1.963,1.405
			c-0.574,0.591-1.071,1.281-1.492,2.07c-0.421,0.789-0.768,1.629-1.042,2.521c-0.273,0.892-0.474,1.811-0.604,2.756
			C784.706,187.835,784.642,188.756,784.642,189.652z"/>
		<path fill="#50B748" d="M812.589,195.631c-0.205,0.29-0.48,0.628-0.824,1.017c-0.344,0.388-0.731,0.759-1.16,1.111
			c-0.43,0.353-0.89,0.651-1.381,0.895c-0.491,0.245-0.983,0.366-1.475,0.366c-0.594,0-1.09-0.188-1.485-0.564
			c-0.396-0.376-0.739-0.923-1.028-1.639c-0.215,0.248-0.481,0.5-0.797,0.756c-0.315,0.257-0.66,0.489-1.033,0.697
			c-0.375,0.208-0.764,0.378-1.17,0.511c-0.405,0.133-0.812,0.199-1.216,0.199c-0.429,0-0.848-0.088-1.254-0.264
			c-0.407-0.176-0.767-0.428-1.079-0.757c-0.313-0.329-0.564-0.73-0.751-1.204c-0.188-0.473-0.282-1.008-0.282-1.603
			c0-0.667,0.095-1.354,0.284-2.057c0.188-0.704,0.48-1.465,0.876-2.285c0.396-0.819,0.82-1.527,1.275-2.125
			c0.453-0.597,0.95-1.117,1.49-1.562c0.539-0.446,1.107-0.8,1.706-1.063c0.598-0.262,1.207-0.394,1.827-0.394
			c0.207,0,0.369,0.041,0.485,0.122c0.117,0.081,0.215,0.173,0.29,0.277c0.077,0.104,0.151,0.205,0.224,0.305
			c0.072,0.099,0.161,0.171,0.27,0.216c0.106,0.046,0.218,0.075,0.33,0.088c0.112,0.013,0.227,0.02,0.344,0.02
			c0.099,0,0.2-0.002,0.304-0.007c0.103-0.004,0.204-0.007,0.304-0.007c0.134,0,0.261,0.014,0.378,0.041
			c0.116,0.027,0.22,0.085,0.309,0.176c0.091,0.091,0.159,0.217,0.209,0.379c0.049,0.163,0.073,0.384,0.073,0.664
			c0,0.427-0.044,0.901-0.133,1.422c-0.091,0.521-0.193,1.055-0.309,1.601c-0.114,0.546-0.246,1.169-0.395,1.869
			c-0.146,0.699-0.221,1.289-0.221,1.768c0,0.41,0.038,0.73,0.113,0.96c0.077,0.231,0.239,0.347,0.49,0.347
			c0.188,0,0.385-0.046,0.59-0.14c0.206-0.093,0.414-0.215,0.624-0.365c0.209-0.151,0.419-0.321,0.63-0.512
			c0.21-0.19,0.408-0.388,0.597-0.591c0.438-0.479,0.88-1.02,1.327-1.622L812.589,195.631z M801.086,194.581
			c0,0.23,0.016,0.454,0.047,0.671c0.032,0.216,0.087,0.41,0.168,0.581c0.08,0.17,0.188,0.309,0.323,0.415
			c0.134,0.106,0.304,0.159,0.51,0.159c0.331,0,0.632-0.144,0.9-0.432c0.269-0.288,0.5-0.634,0.698-1.039
			c0.197-0.405,0.354-0.823,0.477-1.256c0.121-0.432,0.199-0.791,0.234-1.08l1.001-4.359c-0.368,0-0.725,0.091-1.072,0.272
			c-0.349,0.182-0.679,0.427-0.986,0.738c-0.308,0.31-0.592,0.664-0.852,1.063s-0.515,0.891-0.764,1.476
			c-0.25,0.585-0.428,1.099-0.53,1.542C801.138,193.774,801.086,194.19,801.086,194.581z"/>
		<path fill="#50B748" d="M811.518,196.151c0-0.393,0.022-0.851,0.067-1.374c0.044-0.523,0.105-1.075,0.181-1.656
			c0.075-0.582,0.166-1.174,0.269-1.777s0.234-1.247,0.396-1.931c0.16-0.683,0.3-1.253,0.415-1.709
			c0.116-0.456,0.232-0.831,0.349-1.126c0.071-0.196,0.144-0.353,0.215-0.469c0.072-0.116,0.154-0.208,0.248-0.275
			c0.094-0.067,0.21-0.111,0.349-0.134c0.139-0.022,0.311-0.033,0.517-0.033c0.232,0,0.413,0.011,0.542,0.033
			c0.13,0.023,0.227,0.076,0.289,0.161s0.101,0.208,0.114,0.369s0.021,0.38,0.021,0.657c0,0.33-0.022,0.799-0.068,1.408
			c-0.045,0.608-0.058,1.14-0.039,1.595h0.146c0.18-0.357,0.402-0.826,0.671-1.408c0.268-0.581,0.55-1.063,0.845-1.448
			c0.295-0.384,0.63-0.708,1.006-0.972c0.375-0.264,0.809-0.396,1.3-0.396c0.17,0,0.336,0.029,0.497,0.087s0.301,0.141,0.422,0.248
			c0.12,0.107,0.216,0.239,0.288,0.396c0.071,0.157,0.107,0.333,0.107,0.53c0,0.152-0.022,0.364-0.066,0.637
			c-0.045,0.273-0.116,0.628-0.216,1.066c-0.098,0.438-0.169,0.798-0.214,1.08c-0.045,0.281-0.066,0.517-0.066,0.704
			c0,0.322,0.03,0.59,0.094,0.805c0.062,0.214,0.146,0.387,0.248,0.516c0.103,0.13,0.219,0.221,0.349,0.275
			c0.129,0.054,0.266,0.081,0.408,0.081c0.402,0,0.818-0.089,1.247-0.268c0.429-0.179,0.822-0.38,1.181-0.604
			c0.419-0.259,0.831-0.554,1.233-0.885l-0.202,3.138c-0.232,0.152-0.496,0.321-0.79,0.509c-0.296,0.188-0.61,0.364-0.945,0.529
			c-0.335,0.166-0.684,0.304-1.046,0.416c-0.362,0.112-0.73,0.167-1.106,0.167c-0.67,0-1.212-0.136-1.622-0.409
			c-0.412-0.272-0.738-0.63-0.979-1.073c-0.241-0.442-0.421-0.938-0.535-1.488c-0.116-0.549-0.211-1.106-0.282-1.669h-0.215
			l-2.4,6.691c-0.125,0.349-0.243,0.637-0.354,0.865c-0.112,0.228-0.226,0.413-0.342,0.557c-0.116,0.143-0.242,0.244-0.376,0.302
			c-0.135,0.058-0.282,0.087-0.442,0.087c-0.366,0-0.662-0.079-0.886-0.235c-0.223-0.156-0.395-0.367-0.516-0.63
			c-0.12-0.264-0.201-0.563-0.241-0.898C811.538,196.855,811.518,196.508,811.518,196.151z"/>
		<path fill="#50B748" d="M837.153,195.631c-0.206,0.29-0.48,0.628-0.825,1.017c-0.345,0.388-0.73,0.759-1.16,1.111
			c-0.429,0.353-0.889,0.651-1.38,0.895c-0.492,0.245-0.984,0.366-1.476,0.366c-0.594,0-1.089-0.188-1.484-0.564
			c-0.397-0.376-0.739-0.923-1.028-1.639c-0.216,0.248-0.482,0.5-0.797,0.756c-0.316,0.257-0.66,0.489-1.034,0.697
			c-0.374,0.208-0.764,0.378-1.169,0.511c-0.406,0.133-0.812,0.199-1.217,0.199c-0.429,0-0.847-0.088-1.254-0.264
			c-0.407-0.176-0.767-0.428-1.079-0.757c-0.312-0.329-0.563-0.73-0.751-1.204c-0.188-0.473-0.281-1.008-0.281-1.603
			c0-0.667,0.094-1.354,0.283-2.057c0.188-0.704,0.48-1.465,0.876-2.285c0.396-0.819,0.821-1.527,1.275-2.125
			c0.454-0.597,0.95-1.117,1.491-1.562c0.539-0.446,1.107-0.8,1.705-1.063c0.598-0.262,1.207-0.394,1.827-0.394
			c0.208,0,0.369,0.041,0.486,0.122c0.117,0.081,0.213,0.173,0.29,0.277c0.077,0.104,0.15,0.205,0.223,0.305
			c0.072,0.099,0.162,0.171,0.271,0.216c0.107,0.046,0.218,0.075,0.329,0.088c0.113,0.013,0.228,0.02,0.344,0.02
			c0.1,0,0.201-0.002,0.304-0.007c0.104-0.004,0.205-0.007,0.304-0.007c0.135,0,0.262,0.014,0.378,0.041
			c0.117,0.027,0.22,0.085,0.31,0.176c0.09,0.091,0.159,0.217,0.209,0.379c0.049,0.163,0.073,0.384,0.073,0.664
			c0,0.427-0.045,0.901-0.134,1.422c-0.09,0.521-0.192,1.055-0.307,1.601c-0.116,0.546-0.247,1.169-0.396,1.869
			c-0.147,0.699-0.221,1.289-0.221,1.768c0,0.41,0.038,0.73,0.114,0.96c0.075,0.231,0.238,0.347,0.489,0.347
			c0.188,0,0.385-0.046,0.59-0.14c0.205-0.093,0.413-0.215,0.624-0.365c0.21-0.151,0.419-0.321,0.629-0.512
			c0.21-0.19,0.41-0.388,0.597-0.591c0.438-0.479,1.287-0.891,1.734-1.493L837.153,195.631z M825.65,194.581
			c0,0.23,0.016,0.454,0.046,0.671c0.032,0.216,0.088,0.41,0.168,0.581c0.082,0.17,0.188,0.309,0.323,0.415
			c0.134,0.106,0.305,0.159,0.511,0.159c0.33,0,0.631-0.144,0.899-0.432c0.268-0.288,0.502-0.634,0.699-1.039
			c0.196-0.405,0.355-0.823,0.476-1.256c0.121-0.432,0.2-0.791,0.236-1.08l0.999-4.359c-0.366,0-0.725,0.091-1.073,0.272
			c-0.348,0.182-0.677,0.427-0.985,0.738c-0.308,0.31-0.593,0.664-0.851,1.063c-0.26,0.399-0.515,0.891-0.765,1.476
			c-0.251,0.585-0.427,1.099-0.529,1.542C825.701,193.774,825.65,194.19,825.65,194.581z"/>
		<path fill="#50B748" d="M835.695,193.893c0.501-0.434,0.908-0.795,1.221-1.084s0.626-0.625,0.938-1.01
			c0.313-0.384,0.561-0.698,0.744-0.942c0.183-0.244,0.4-0.533,0.649-0.867c0.251-0.334,0.556-0.743,0.913-1.227
			s0.822-1.087,1.394-1.81c0.116-0.163,0.246-0.321,0.39-0.475c0.142-0.154,0.301-0.291,0.476-0.413
			c0.174-0.123,0.367-0.222,0.577-0.298c0.209-0.077,0.444-0.115,0.703-0.115c0.43,0,0.761,0.047,0.993,0.143
			c0.232,0.095,0.402,0.209,0.51,0.345c0.107,0.135,0.169,0.278,0.188,0.427c0.018,0.149,0.026,0.277,0.026,0.386
			c0,0.217-0.085,0.457-0.255,0.718c-0.17,0.262-0.357,0.515-0.562,0.759c-0.206,0.244-0.4,0.468-0.583,0.671
			c-0.184,0.203-0.289,0.354-0.316,0.454c0,0.28,0.021,0.535,0.062,0.765c0.041,0.231,0.096,0.457,0.164,0.678
			c0.069,0.221,0.139,0.456,0.213,0.705c0.071,0.249,0.143,0.536,0.209,0.86c0.067,0.325,0.076,0.772,0.027,1.342
			c-0.05,0.569-0.074,1.143-0.074,1.721c0.322-0.216,0.669-0.414,1.04-0.589c0.37-0.176,0.757-0.359,1.159-0.549
			c0.401-0.19,0.815-0.4,1.24-0.63c0.425-0.23,0.852-0.509,1.28-0.834l0.014,3.037c-0.555,0.413-1.196,0.801-1.924,1.163
			c-0.729,0.362-1.494,0.681-2.299,0.957c-0.803,0.276-1.614,0.494-2.432,0.653c-0.818,0.16-1.594,0.239-2.326,0.239
			c-0.528,0-1.02-0.047-1.476-0.141c-0.455-0.094-0.856-0.241-1.2-0.443c-0.344-0.201-0.624-0.463-0.838-0.789
			c-0.215-0.325-0.344-0.718-0.388-1.18c-0.126,0.027-0.249,0.046-0.369,0.054c-0.121,0.01-0.239,0.014-0.355,0.014
			c-0.144,0-0.277-0.004-0.402-0.014c-0.126-0.009-0.232-0.043-0.321-0.102c-0.09-0.059-0.162-0.154-0.215-0.285
			c-0.054-0.131-0.081-0.319-0.081-0.563c0-0.216,0.054-0.418,0.161-0.603s0.232-0.35,0.376-0.495
			c0.143-0.144,0.285-0.271,0.429-0.379C835.517,194.042,835.624,193.957,835.695,193.893z M837.369,195.627
			c0.107,0,0.226,0.068,0.355,0.204c0.13,0.135,0.279,0.285,0.448,0.447c0.17,0.163,0.367,0.312,0.591,0.447
			c0.223,0.135,0.478,0.203,0.765,0.203c0.349,0,0.636-0.059,0.864-0.176c0.228-0.117,0.409-0.273,0.543-0.467
			c0.135-0.195,0.229-0.42,0.281-0.678c0.054-0.257,0.081-0.526,0.081-0.807c0-0.244-0.016-0.492-0.047-0.745
			c-0.032-0.253-0.027-0.567,0.013-0.942c0.041-0.375,0.032-0.665-0.026-0.868c-0.058-0.203-0.109-0.377-0.153-0.521
			L837.369,195.627z"/>
		<path fill="#50B748" d="M855.873,188.616c0.258,0.519,0.453,1.066,0.583,1.643c0.129,0.576,0.194,1.227,0.194,1.951
			c0,0.527-0.059,1.059-0.174,1.596c-0.117,0.536-0.284,1.055-0.503,1.556c-0.221,0.5-0.487,0.97-0.805,1.408
			c-0.318,0.438-0.68,0.818-1.086,1.14c-0.407,0.321-0.852,0.577-1.335,0.764c-0.482,0.188-0.997,0.282-1.542,0.282
			c-0.786,0-1.459-0.172-2.018-0.516c-0.559-0.344-1.018-0.793-1.374-1.348c-0.357-0.554-0.619-1.18-0.785-1.877
			s-0.248-1.403-0.248-2.118c0-1.18,0.147-2.197,0.443-3.05c0.294-0.854,0.717-1.596,1.267-2.226
			c0.549-0.63,1.222-1.126,2.018-1.488c0.796-0.362,1.69-0.543,2.682-0.543c0.85,0,1.645,0.133,2.387,0.396s1.438,0.617,2.085,1.059
			c0.648,0.442,1.252,0.999,1.811,1.669c0.558,0.67,1.079,1.31,1.562,1.917l-0.255,1.891c-0.241-0.321-0.567-0.67-0.979-1.045
			c-0.411-0.376-0.847-0.792-1.308-1.247c-0.46-0.456-0.914-0.843-1.36-1.16c-0.446-0.317-0.831-0.583-1.153-0.798L855.873,188.616z
			 M851.729,196.379c0.304,0,0.598-0.155,0.885-0.463c0.286-0.308,0.537-0.697,0.751-1.166s0.387-1.037,0.516-1.703
			c0.13-0.667,0.195-1.258,0.195-1.777c0-0.411-0.032-0.793-0.094-1.146c-0.063-0.353-0.157-0.659-0.282-0.918
			c-0.125-0.259-0.286-0.464-0.482-0.617c-0.196-0.152-0.435-0.228-0.711-0.228c-0.366,0-0.715,0.156-1.046,0.469
			c-0.33,0.313-0.621,0.713-0.872,1.2c-0.25,0.487-0.446,1.025-0.59,1.615c-0.143,0.591-0.214,1.256-0.214,1.999
			c0,0.375,0.036,0.729,0.107,1.059s0.183,0.619,0.335,0.865c0.152,0.246,0.353,0.442,0.604,0.59
			C851.081,196.305,851.381,196.379,851.729,196.379z"/>
		<path fill="#50B748" d="M862.175,198.954c-0.481,0-0.928-0.209-1.342-0.627s-0.775-0.979-1.083-1.683
			c-0.307-0.704-0.547-1.52-0.721-2.449c-0.174-0.928-0.261-1.902-0.261-2.923c0-0.877,0.129-2.048,0.387-3.513
			c0.257-1.465,0.387-2.197,0.387-2.197c0,0,0.195-0.731,0.586-2.194c0.39-1.463,0.781-2.636,1.175-3.52
			c0.393-0.883,0.819-1.709,1.279-2.477s0.943-1.437,1.449-2.007c0.506-0.571,1.033-1.019,1.584-1.345
			c0.552-0.326,1.111-0.488,1.68-0.488c0.414,0,0.756,0.078,1.025,0.237c0.27,0.158,0.481,0.367,0.635,0.625
			c0.155,0.259,0.263,0.553,0.325,0.881c0.063,0.328,0.095,0.662,0.095,1.003c0,0.845-0.101,1.706-0.3,2.582
			c-0.2,0.876-0.47,1.757-0.809,2.642c-0.34,0.886-0.732,1.773-1.178,2.664c-0.447,0.89-0.912,1.773-1.395,2.649
			c-0.484,0.877-0.969,1.739-1.457,2.589c-0.487,0.849-0.938,1.68-1.351,2.491c-0.045,0.09-0.093,0.208-0.141,0.351
			c-0.05,0.145-0.098,0.3-0.142,0.467c-0.045,0.166-0.09,0.344-0.135,0.533c-0.046,0.189-0.08,0.375-0.107,0.555v0.189
			c0,0.234,0.024,0.462,0.073,0.683c0.05,0.22,0.11,0.419,0.182,0.595c0.072,0.176,0.148,0.315,0.229,0.419
			c0.082,0.104,0.157,0.155,0.229,0.155c0.174,0,0.372-0.036,0.597-0.108c0.225-0.072,0.463-0.169,0.714-0.291
			c0.252-0.122,0.51-0.261,0.776-0.419c0.265-0.157,0.521-0.317,0.768-0.48c0.578-0.378,1.182-0.815,1.813-1.312l1.184,2.827
			c-0.819,0.543-1.63,1.028-2.431,1.454c-0.35,0.178-0.71,0.354-1.084,0.529c-0.372,0.174-0.748,0.33-1.124,0.465
			c-0.378,0.136-0.746,0.244-1.105,0.325C862.823,198.914,862.487,198.954,862.175,198.954z M862.188,188.325
			c0.403-0.721,0.831-1.532,1.284-2.434c0.454-0.901,0.882-1.83,1.285-2.786c0.404-0.956,0.754-1.909,1.049-2.86
			c0.296-0.951,0.484-1.836,0.565-2.657c0-0.261-0.007-0.484-0.02-0.669c-0.012-0.185-0.053-0.277-0.12-0.277
			c-0.246,0-0.511,0.17-0.794,0.509c-0.284,0.339-0.567,0.799-0.852,1.379c-0.283,0.579-0.623,1.522-1.017,2.828
			s-0.591,1.958-0.591,1.958c0,0-0.121,0.606-0.361,1.818C862.377,186.345,862.233,187.409,862.188,188.325z"/>
		<path fill="#50B748" d="M872.088,191.562c0.322-0.418,0.676-0.878,1.06-1.378c0.384-0.5,0.762-0.978,1.133-1.433
			s0.745-0.928,1.119-1.419c0.376-0.491,0.653-0.8,0.832-0.928c0.277-0.2,0.616-0.371,1.02-0.512
			c0.401-0.142,0.85-0.212,1.341-0.212c0.249,0,0.488,0.059,0.717,0.178c0.229,0.118,0.427,0.287,0.597,0.504
			c0.17,0.218,0.305,0.482,0.402,0.792c0.098,0.309,0.147,0.655,0.147,1.037c0,0.373-0.123,0.816-0.368,1.331
			c-0.246,0.515-0.504,0.962-0.771,1.344c-0.268,0.382-0.559,0.765-0.871,1.146c-0.313,0.382-0.604,0.767-0.872,1.153
			s-0.492,0.771-0.67,1.153c-0.18,0.382-0.269,0.764-0.269,1.146c0,0.328,0.078,0.562,0.234,0.704
			c0.157,0.141,0.4,0.211,0.731,0.211c0.178,0,0.373-0.062,0.583-0.185c0.21-0.123,0.426-0.284,0.649-0.484s0.45-0.423,0.678-0.669
			c0.229-0.245,0.447-0.496,0.657-0.75c0.209-0.254,0.409-0.498,0.597-0.73c0.188-0.232,0.357-0.43,0.51-0.594l0.804,3.343
			c-0.277,0.376-0.628,0.725-1.052,1.046c-0.425,0.321-0.886,0.601-1.381,0.838c-0.496,0.238-1.011,0.424-1.542,0.558
			c-0.532,0.133-1.045,0.2-1.535,0.2c-0.645,0-1.17-0.073-1.576-0.219c-0.407-0.146-0.727-0.339-0.959-0.581
			c-0.232-0.242-0.391-0.515-0.476-0.818c-0.085-0.304-0.128-0.619-0.128-0.944c0-0.209,0.025-0.466,0.073-0.771
			c0.05-0.305,0.144-0.648,0.282-1.03c0.139-0.382,0.333-0.803,0.583-1.262c0.251-0.459,0.577-0.953,0.979-1.48
			c0.161-0.164,0.308-0.312,0.442-0.443c0.134-0.132,0.25-0.25,0.349-0.355c0.098-0.104,0.175-0.202,0.228-0.293
			c0.054-0.091,0.081-0.187,0.081-0.287c0-0.191-0.033-0.346-0.102-0.464c-0.066-0.118-0.162-0.178-0.287-0.178
			c-0.152,0-0.349,0.101-0.59,0.301c-0.251,0.209-0.515,0.56-0.791,1.051l-3.942,6.887c-0.215,0.325-0.43,0.554-0.645,0.688
			c-0.214,0.133-0.465,0.2-0.75,0.2c-0.385,0-0.689-0.078-0.912-0.234c-0.224-0.155-0.394-0.365-0.509-0.63
			c-0.116-0.265-0.19-0.572-0.222-0.921s-0.047-0.722-0.047-1.117c0-0.518,0.018-1.204,0.053-2.058
			c0.036-0.854,0.091-1.792,0.161-2.814c0.072-1.022,0.168-2.091,0.289-3.209c0.121-1.117,0.266-2.203,0.436-3.257
			c0.066-0.362,0.147-0.805,0.243-1.331c0.098-0.525,0.229-1.084,0.393-1.678c0.166-0.593,0.339-1.217,0.521-1.871
			c0.182-0.654,0.405-1.287,0.669-1.897c0.264-0.61,0.561-1.192,0.893-1.745c0.33-0.553,0.701-1.036,1.113-1.451
			c0.411-0.415,0.863-0.742,1.355-0.983s1.029-0.361,1.611-0.361c0.455,0,0.831,0.073,1.125,0.22
			c0.296,0.147,0.53,0.352,0.704,0.614c0.175,0.263,0.297,0.577,0.369,0.941c0.071,0.365,0.107,0.761,0.107,1.188
			c0,0.765-0.097,1.588-0.288,2.47c-0.193,0.881-0.437,1.766-0.73,2.652c-0.296,0.887-0.617,1.749-0.966,2.585
			c-0.349,0.836-0.684,1.592-1.007,2.267c-0.321,0.675-0.605,1.244-0.85,1.708c-0.247,0.463-0.41,0.767-0.49,0.911l-1.596,2.402
			L872.088,191.562z M874.712,176.401c-0.29,0-0.539,0.089-0.748,0.267c-0.209,0.179-0.405,0.433-0.591,0.762
			c-0.187,0.33-0.373,0.731-0.559,1.204c-0.187,0.472-0.397,0.998-0.633,1.577c-0.127,0.521-0.259,1.057-0.393,1.608
			c-0.135,0.551-0.242,1.097-0.325,1.637c-0.082,0.54-0.162,1.071-0.241,1.594s-0.153,1.012-0.223,1.468
			c-0.134,1.126-0.241,2.235-0.321,3.324c0.196-0.598,0.412-1.249,0.646-1.952c0.234-0.704,0.468-1.397,0.698-2.082
			c0.23-0.685,0.447-1.329,0.649-1.932c0.205-0.604,0.374-1.115,0.509-1.535c0.063-0.197,0.153-0.443,0.271-0.738
			c0.117-0.295,0.243-0.612,0.38-0.952c0.135-0.339,0.271-0.692,0.406-1.059c0.135-0.367,0.259-0.719,0.372-1.059
			c0.114-0.34,0.206-0.657,0.278-0.952s0.108-0.545,0.108-0.75C874.998,176.544,874.902,176.401,874.712,176.401z"/>
		<path fill="#50B748" d="M894.868,195.631c-0.206,0.29-0.48,0.628-0.825,1.017c-0.344,0.388-0.73,0.759-1.159,1.111
			c-0.43,0.353-0.89,0.651-1.382,0.895c-0.492,0.245-0.982,0.366-1.475,0.366c-0.593,0-1.09-0.188-1.485-0.564
			c-0.397-0.376-0.739-0.923-1.027-1.639c-0.217,0.248-0.481,0.5-0.798,0.756c-0.314,0.257-0.66,0.489-1.033,0.697
			c-0.374,0.208-0.764,0.378-1.17,0.511c-0.404,0.133-0.811,0.199-1.216,0.199c-0.43,0-0.847-0.088-1.254-0.264
			c-0.406-0.176-0.767-0.428-1.08-0.757c-0.312-0.329-0.562-0.73-0.75-1.204c-0.188-0.473-0.282-1.008-0.282-1.603
			c0-0.667,0.095-1.354,0.283-2.057c0.189-0.704,0.481-1.465,0.878-2.285c0.395-0.819,0.82-1.527,1.274-2.125
			c0.453-0.597,0.95-1.117,1.49-1.562c0.539-0.446,1.107-0.8,1.705-1.063c0.6-0.262,1.209-0.394,1.829-0.394
			c0.206,0,0.369,0.041,0.485,0.122c0.117,0.081,0.213,0.173,0.289,0.277c0.077,0.104,0.151,0.205,0.224,0.305
			c0.071,0.099,0.161,0.171,0.27,0.216c0.107,0.046,0.218,0.075,0.331,0.088c0.111,0.013,0.227,0.02,0.344,0.02
			c0.098,0,0.199-0.002,0.304-0.007c0.103-0.004,0.204-0.007,0.303-0.007c0.135,0,0.261,0.014,0.378,0.041
			c0.116,0.027,0.221,0.085,0.31,0.176c0.09,0.091,0.159,0.217,0.208,0.379c0.049,0.163,0.074,0.384,0.074,0.664
			c0,0.427-0.046,0.901-0.135,1.422c-0.089,0.521-0.191,1.055-0.307,1.601c-0.115,0.546-0.247,1.169-0.395,1.869
			c-0.147,0.699-0.222,1.289-0.222,1.768c0,0.41,0.039,0.73,0.114,0.96c0.076,0.231,0.239,0.347,0.489,0.347
			c0.188,0,0.385-0.046,0.59-0.14c0.206-0.093,0.414-0.215,0.624-0.365c0.21-0.151,0.42-0.321,0.631-0.512
			c0.21-0.19,0.408-0.388,0.596-0.591c0.438-0.479,0.881-1.02,1.327-1.622L894.868,195.631z M883.364,194.581
			c0,0.23,0.016,0.454,0.048,0.671c0.031,0.216,0.087,0.41,0.168,0.581c0.08,0.17,0.188,0.309,0.321,0.415
			c0.136,0.106,0.305,0.159,0.511,0.159c0.332,0,0.631-0.144,0.9-0.432c0.269-0.288,0.501-0.634,0.698-1.039
			c0.196-0.405,0.355-0.823,0.476-1.256c0.122-0.432,0.2-0.791,0.236-1.08l0.999-4.359c-0.366,0-0.724,0.091-1.072,0.272
			s-0.677,0.427-0.985,0.738c-0.309,0.31-0.592,0.664-0.852,1.063c-0.259,0.399-0.514,0.891-0.765,1.476
			c-0.249,0.585-0.426,1.099-0.529,1.542C883.416,193.774,883.364,194.19,883.364,194.581z"/>
	</g>
</g>
</svg>
